<svg width="250" height="250" xmlns="http://www.w3.org/2000/svg" xmlns:xlink="http://www.w3.org/1999/xlink" xml:space="preserve" overflow="hidden"><g transform="translate(-825 -384)"><path d="M950 384C880.964 384 825 439.964 825 509 825 578.036 880.964 634 950 634 1019.04 634 1075 578.036 1075 509 1075 439.964 1019.04 384 950 384ZM903.164 593.632 868.023 593.632 868.023 480.568 903.164 480.568 903.164 593.632ZM885.601 465.113C874.338 465.113 865.22 455.982 865.22 444.734 865.223 433.496 874.338 424.366 885.601 424.366 896.834 424.366 905.964 433.496 905.964 444.734 905.964 455.985 896.831 465.113 885.601 465.113ZM1034.78 593.632 999.665 593.632 999.665 538.647C999.665 525.535 999.422 508.67 981.399 508.67 963.123 508.67 960.312 522.951 960.312 537.698L960.312 593.629 925.202 593.629 925.202 480.568 958.905 480.568 958.905 496.018 959.379 496.018C964.072 487.128 975.529 477.757 992.627 477.757 1028.21 477.757 1034.78 501.174 1034.78 531.616L1034.78 593.632Z" fill="#E9F2FB"/></g></svg>