<svg width="219" height="219" xmlns="http://www.w3.org/2000/svg" xmlns:xlink="http://www.w3.org/1999/xlink" xml:space="preserve" overflow="hidden"><g transform="translate(-874 -86)"><path d="M983.08 304.58C922.667 304.58 874 291.155 874 275.213 874 264.305 895.816 255.075 928.54 250.04L941.965 264.305C911.759 265.983 895.816 271.017 895.816 275.213 895.816 281.925 931.897 287.799 983.08 287.799 1034.26 287.799 1071.18 281.925 1071.18 275.213 1071.18 270.178 1055.24 265.983 1025.03 264.305L1038.46 250.04C1071.18 255.075 1093 264.305 1093 275.213 1092.16 291.155 1043.49 304.58 983.08 304.58ZM1016.64 161.937C1016.64 180.472 1001.62 195.5 983.08 195.5 964.544 195.5 949.517 180.472 949.517 161.937 949.517 143.401 964.544 128.373 983.08 128.373 1001.59 128.432 1016.59 143.427 1016.64 161.937ZM966.299 161.937C966.299 171.209 973.812 178.718 983.08 178.718 992.349 178.718 999.862 171.209 999.862 161.937 999.862 152.665 992.349 145.155 983.08 145.155 973.824 145.18 966.327 152.682 966.299 161.937ZM991.471 262.626 983.08 271.017 974.69 262.626C972.172 259.27 919.31 213.96 909.241 174.523 908.402 172.006 906.724 162.776 915.954 161.937 923.506 161.098 925.184 170.328 925.184 170.328 931.897 199.695 968.816 228.224 983.08 245.845 998.184 226.546 1041.82 194.661 1041.82 161.937 1041.82 124.178 1020 103.201 983.08 103.201 955.391 103.201 936.092 114.948 928.54 136.764 928.54 136.764 925.184 146.833 919.31 145.155 912.598 143.477 911.759 138.442 914.276 130.891 931.466 92.8888 976.206 76.0216 1014.21 93.2076 1041.21 105.425 1058.57 132.3 1058.6 161.937 1058.6 203.891 994.828 259.27 991.471 262.626Z" fill="#E9F2FB"/></g></svg>