<svg width="210" height="210" xmlns="http://www.w3.org/2000/svg" xmlns:xlink="http://www.w3.org/1999/xlink" xml:space="preserve" overflow="hidden"><g transform="translate(-158 -74)"><path d="M193 240.25 236.75 196.5M333 240.25 289.25 196.5M184.498 161.5 247.465 203.645C253.078 207.388 255.885 209.258 258.919 209.986 261.599 210.628 264.394 210.628 267.075 209.986 270.108 209.258 272.915 207.388 278.529 203.645L341.496 161.5M248.108 109.602 197.359 141.474C192.573 144.479 190.18 145.982 188.445 148.013 186.909 149.811 185.753 151.902 185.047 154.159 184.25 156.709 184.25 159.534 184.25 165.186L184.25 221C184.25 230.801 184.25 235.702 186.157 239.445 187.835 242.738 190.512 245.415 193.805 247.092 197.549 249 202.449 249 212.25 249L313.75 249C323.551 249 328.452 249 332.195 247.092 335.488 245.415 338.165 242.738 339.842 239.445 341.75 235.702 341.75 230.801 341.75 221L341.75 165.186C341.75 159.534 341.75 156.709 340.953 154.159 340.247 151.902 339.092 149.811 337.555 148.013 335.82 145.982 333.427 144.479 328.642 141.474L277.892 109.602C272.49 106.21 269.79 104.514 266.893 103.853 264.33 103.269 261.67 103.269 259.107 103.853 256.21 104.514 253.51 106.21 248.108 109.602Z" stroke="#E9F2FB" stroke-width="17.5" stroke-linecap="round" stroke-linejoin="round" fill="none"/></g></svg>