<svg width="301" height="301" xmlns="http://www.w3.org/2000/svg" xmlns:xlink="http://www.w3.org/1999/xlink" xml:space="preserve" overflow="hidden"><g transform="translate(-466 -345)"><path d="M672.928 382.625 560.053 382.625C549.669 382.625 541.25 391.053 541.25 401.438L541.25 589.562C541.25 599.947 549.669 608.375 560.053 608.375L672.928 608.375C683.322 608.375 691.75 599.947 691.75 589.562L691.75 401.438C691.75 391.053 683.322 382.625 672.928 382.625ZM588.281 392.031 635.312 392.031 635.896 401.438 588.281 401.438 588.281 392.031ZM616.302 594.266C611.11 594.266 606.896 590.061 606.896 584.859 606.896 579.658 611.11 575.453 616.302 575.453 621.504 575.453 625.709 579.658 625.709 584.859 625.709 590.061 621.495 594.266 616.302 594.266ZM672.928 561.344 560.053 561.344 560.251 410.844 672.928 410.844 672.928 561.344Z" fill="#E9F2FB"/></g></svg>