<svg width="209" height="210" xmlns="http://www.w3.org/2000/svg" xmlns:xlink="http://www.w3.org/1999/xlink" xml:space="preserve" overflow="hidden"><g transform="translate(-512 -86)"><path d="M85.6747 160.64C87.173 163.448 88.6735 165.979 90.1077 168.221 74.8695 164.795 61.6468 156.042 52.4971 144.021 58.5358 140.62 66.27 137.095 75.568 134.516 78.2106 144.881 81.9388 153.635 85.6747 160.64ZM97.2007 154.493C93.9551 148.408 90.7025 140.809 88.3591 131.806 93.4038 131.057 98.7891 130.625 104.501 130.625 110.212 130.625 115.597 131.057 120.641 131.805 118.297 140.809 115.045 148.408 111.799 154.493 109.197 159.372 106.605 163.267 104.5 166.118 102.395 163.267 99.8027 159.372 97.2007 154.493ZM84.9062 104.5C84.9062 109.587 85.2485 114.414 85.852 118.972 91.6718 118.08 97.8939 117.562 104.501 117.562 111.107 117.562 117.329 118.079 123.148 118.972 123.752 114.414 124.094 109.587 124.094 104.5 124.094 99.4135 123.752 94.5864 123.148 90.0276 117.329 90.9202 111.107 91.4375 104.501 91.4375 97.8939 91.4375 91.6718 90.9202 85.852 90.0276 85.2485 94.5856 84.9062 99.4135 84.9062 104.5ZM73.0357 87.3341C72.2772 92.7246 71.8438 98.4512 71.8438 104.5 71.8438 110.549 72.2772 116.275 73.0357 121.666 61.9457 124.643 52.7622 128.842 45.6599 132.881 41.5125 124.299 39.1875 114.671 39.1875 104.5 39.1875 94.3287 41.5125 84.7011 45.6598 76.1185 52.7614 80.1578 61.945 84.3564 73.0357 87.3341ZM88.3591 77.1946C93.4038 77.9432 98.7891 78.375 104.501 78.375 110.212 78.375 115.597 77.9433 120.641 77.1948 118.297 68.191 115.045 60.592 111.799 54.5072 109.197 49.6283 106.605 45.7323 104.5 42.8826 102.395 45.7323 99.8027 49.6283 97.2007 54.507 93.9551 60.5918 90.7025 68.1909 88.3591 77.1946ZM135.964 87.335C136.723 92.7255 137.156 98.4521 137.156 104.5 137.156 110.549 136.723 116.275 135.964 121.665 147.054 124.643 156.238 128.842 163.34 132.881 167.487 124.298 169.812 114.67 169.812 104.5 169.812 94.3295 167.487 84.7013 163.34 76.1189 156.239 80.1582 147.055 84.3568 135.964 87.335ZM156.503 64.9797C150.463 68.3805 142.73 71.9051 133.433 74.4848 130.79 64.1198 127.062 55.3649 123.326 48.3602 121.827 45.5513 120.327 43.0213 118.892 40.7785 134.131 44.2055 147.354 52.9585 156.503 64.9797ZM75.5679 74.4846C66.2705 71.9048 58.5365 68.3802 52.4972 64.9792 61.6468 52.9583 74.8695 44.2055 90.1069 40.7785 88.6735 43.0213 87.173 45.5512 85.6746 48.36 81.9388 55.3647 78.2106 64.1195 75.5679 74.4846ZM133.433 134.515C130.79 144.881 127.062 153.635 123.326 160.64 121.827 163.448 120.327 165.979 118.892 168.221 134.131 164.795 147.354 156.041 156.504 144.02 150.464 140.62 142.73 137.095 133.433 134.515ZM104.5 182.875C147.786 182.875 182.875 147.786 182.875 104.5 182.875 61.2147 147.786 26.125 104.5 26.125 61.2147 26.125 26.125 61.2147 26.125 104.5 26.125 147.786 61.2147 182.875 104.5 182.875Z" fill="#E9F2FB" fill-rule="evenodd" transform="matrix(1 0 0 1.00478 512 86)"/></g></svg>